<?xml version="1.0" standalone="no"?>
<!DOCTYPE svg PUBLIC "-//W3C//DTD SVG 20010904//EN"
 "http://www.w3.org/TR/2001/REC-SVG-20010904/DTD/svg10.dtd">
<svg version="1.0" xmlns="http://www.w3.org/2000/svg"
 width="400.000000pt" height="400.000000pt" viewBox="0 0 400.000000 400.000000"
 preserveAspectRatio="xMidYMid meet">
<metadata>
Created by potrace 1.11, written by Peter Selinger 2001-2013
</metadata>
<g transform="translate(0.000000,400.000000) scale(0.100000,-0.100000)"
fill="#000000" stroke="none">
<path d="M1797 3003 c-3 -5 -24 -8 -46 -7 -23 0 -41 -2 -41 -5 0 -4 -9 -7 -21
-8 -32 -3 -118 -33 -179 -63 -118 -59 -120 -60 -118 -86 1 -13 6 -24 11 -24 4
0 5 -4 2 -10 -3 -5 -2 -10 2 -10 20 0 25 -241 5 -248 -7 -2 -10 -8 -7 -12 8
-13 -35 -79 -81 -122 -38 -37 -110 -78 -138 -78 -8 0 -17 -3 -20 -8 -5 -9 -70
-7 -87 3 -8 6 -10 4 -4 -4 6 -10 3 -11 -12 -2 -14 7 -23 7 -31 -1 -7 -7 -12
-8 -12 -4 0 5 -6 3 -14 -4 -8 -6 -12 -18 -9 -26 3 -8 1 -14 -4 -14 -15 0 -23
-273 -10 -337 4 -18 9 -47 12 -64 3 -16 12 -49 21 -72 8 -23 16 -47 17 -52 8
-35 83 -171 127 -230 63 -84 253 -245 290 -245 5 0 10 -3 10 -8 0 -15 164 -78
244 -93 100 -19 108 -20 176 -21 187 -3 341 39 526 145 57 33 172 138 229 210
64 82 65 82 66 61 1 -10 1 -22 0 -26 0 -5 7 -8 17 -8 20 0 40 28 36 53 -1 9 2
17 7 17 6 0 7 5 4 10 -3 6 1 10 9 10 9 0 16 7 16 15 0 8 5 15 11 15 5 0 7 5 3
12 -5 7 -2 9 9 5 12 -4 14 -2 10 10 -5 13 -2 15 12 10 15 -6 16 -5 5 8 -10 13
-9 15 9 15 12 0 20 3 18 8 -7 10 19 32 29 24 4 -4 4 1 1 11 -4 11 -1 17 8 17
7 0 17 5 21 12 5 7 2 9 -7 4 -8 -4 -6 -1 4 7 20 16 23 32 5 21 -9 -5 -9 -3 1
9 7 9 17 15 21 12 4 -2 5 7 2 20 -2 15 -9 22 -16 18 -6 -4 -5 1 3 10 13 17 6
23 -21 18 -5 0 -8 4 -8 10 0 5 -6 7 -12 3 -9 -6 -9 -3 0 9 12 14 11 15 -12 11
-18 -3 -28 1 -32 11 -6 14 -8 13 -20 -2 -12 -16 -13 -16 -9 7 3 14 6 46 6 72
1 26 5 51 8 55 8 11 34 16 27 5 -3 -5 7 -10 22 -10 15 -1 39 -3 54 -5 17 -3
29 1 33 11 4 10 9 11 18 4 8 -7 18 -7 27 -2 8 5 18 6 22 4 4 -3 8 -1 8 3 0 5
9 14 21 21 12 8 18 9 15 3 -4 -7 -1 -8 8 -5 9 3 13 11 9 17 -4 6 0 8 11 4 10
-4 15 -3 11 3 -6 9 7 14 27 11 4 0 5 5 3 12 -3 7 8 18 26 26 19 8 28 18 25 27
-5 13 7 19 29 14 5 -1 7 1 3 5 -4 4 -2 13 5 21 34 38 36 41 24 53 -9 9 -7 11
8 6 15 -5 16 -4 6 3 -11 8 -11 10 0 15 8 3 10 6 4 6 -5 0 -28 -15 -49 -34 -22
-19 -44 -31 -49 -28 -6 3 -7 1 -3 -5 4 -7 1 -12 -9 -12 -9 0 -14 -4 -11 -9 3
-5 -7 -8 -23 -7 -17 1 -28 -1 -25 -5 2 -4 0 -10 -6 -14 -5 -3 -10 0 -10 7 0
10 -2 10 -9 -1 -5 -8 -16 -11 -26 -7 -16 6 -16 4 -4 -10 13 -16 12 -16 -8 -5
-17 9 -23 9 -23 0 0 -8 -5 -7 -17 2 -11 10 -14 10 -9 2 4 -8 1 -13 -9 -13 -10
0 -13 5 -9 12 5 7 3 8 -7 2 -18 -11 -60 -13 -53 -2 3 4 -4 8 -15 8 -12 0 -21
4 -21 10 0 5 -3 9 -7 9 -46 -7 -82 24 -68 59 6 15 7 15 17 -2 8 -14 12 -16 19
-5 6 11 9 10 15 -4 6 -17 7 -17 21 0 8 10 12 12 8 6 -3 -7 -1 -13 4 -13 6 0
11 5 11 11 0 6 7 9 14 6 11 -4 13 -1 9 11 -3 9 -2 14 2 10 11 -11 38 29 29 44
-5 7 -3 8 6 3 9 -6 10 -2 5 15 -5 17 -4 21 5 15 8 -5 11 -4 6 3 -4 6 -14 8
-24 5 -15 -6 -16 -5 -2 12 9 11 10 16 3 11 -8 -4 -13 -2 -13 8 0 8 -5 18 -12
22 -7 5 -8 2 -3 -7 5 -8 -3 -4 -17 9 -18 16 -28 20 -33 12 -5 -8 -12 -6 -22 7
-8 10 -12 12 -8 6 4 -8 0 -13 -10 -13 -9 0 -19 -9 -22 -20 -3 -11 -9 -17 -14
-14 -5 3 -13 -5 -18 -18 -9 -22 -9 -22 -16 -3 -14 40 -77 160 -108 205 -29 43
-170 188 -213 220 -110 81 -305 160 -401 163 -13 1 -23 4 -23 7 0 10 -227 12
-233 3z m1013 -1223 c0 -4 -7 -11 -16 -14 -8 -3 -13 -10 -9 -15 3 -5 1 -12 -4
-16 -6 -3 -8 4 -5 17 3 13 6 28 6 35 1 12 28 6 28 -7z m-60 -214 c0 -2 -8 -10
-17 -17 -16 -13 -17 -12 -4 4 13 16 21 21 21 13z"/>
<path d="M1054 2868 c-3 -4 -14 -8 -25 -8 -10 0 -28 -9 -39 -20 -11 -11 -20
-17 -20 -12 0 11 -59 -61 -66 -80 -3 -10 -9 -18 -13 -18 -5 0 -8 -12 -9 -27 0
-16 -1 -30 -2 -33 -1 -3 -3 -15 -6 -28 -3 -16 0 -21 8 -16 10 5 10 4 2 -5 -12
-13 3 -91 18 -91 4 0 8 -6 8 -14 0 -30 97 -100 154 -111 11 -2 22 -4 24 -5 23
-16 162 28 162 51 0 6 4 8 9 5 5 -3 17 6 27 20 11 15 25 32 32 40 7 8 10 14 6
14 -3 0 -1 6 5 14 7 8 13 31 14 50 1 20 5 36 9 36 4 0 4 10 -1 23 -4 12 -6 27
-4 34 2 6 -1 14 -6 18 -6 3 -11 14 -11 24 0 28 -68 100 -115 122 -44 21 -152
32 -161 17z"/>
</g>
</svg>
